<svg width="1085" height="365" viewBox="0 0 1085 365" fill="none" xmlns="http://www.w3.org/2000/svg">
<path d="M17.0849 132.059C0.960304 71.3669 -7.10198 41.0207 8.68253 20.5104C24.467 0 55.8833 0 118.716 0H966.283C1029.12 0 1060.54 0 1076.32 20.5104C1092.1 41.0207 1084.03 71.3668 1067.91 132.059L1026.78 286.879C1016.8 324.433 1011.82 343.211 997.641 354.105C983.473 365 964.03 365 925.151 365H159.848C120.969 365 101.53 365 87.3559 354.105C73.1831 343.211 68.1945 324.433 58.217 286.879L17.0849 132.059Z" fill="url(#paint0_linear_291_105)" fill-opacity="0.7"/>
<defs>
<linearGradient id="paint0_linear_291_105" x1="0.152344" y1="182.5" x2="1084.85" y2="182.5" gradientUnits="userSpaceOnUse">
<stop stop-color="#FFD6EC"/>
<stop offset="1" stop-color="#C1729C"/>
</linearGradient>
</defs>
</svg>
