<svg width="1085" height="354" viewBox="0 0 1085 354" fill="none" xmlns="http://www.w3.org/2000/svg">
<path d="M16.9373 128.079C0.80819 69.2161 -7.25638 39.7845 8.5326 19.8923C24.3216 0 55.7467 0 118.597 0H966.404C1029.26 0 1060.68 0 1076.47 19.8923C1092.26 39.7845 1084.19 69.216 1068.06 128.079L1026.92 278.233C1016.94 314.656 1011.95 332.867 997.771 343.434C983.6 354 964.15 354 925.261 354H159.741C120.851 354 101.406 354 87.2282 343.434C73.0515 332.867 68.0614 314.656 58.0811 278.233L16.9373 128.079Z" fill="url(#paint0_linear_291_112)" fill-opacity="0.7"/>
<defs>
<linearGradient id="paint0_linear_291_112" x1="0" y1="177" x2="1085" y2="177" gradientUnits="userSpaceOnUse">
<stop stop-color="#D2F267"/>
<stop offset="1" stop-color="#AEF3AA"/>
</linearGradient>
</defs>
</svg>
