<svg width="212" height="727" viewBox="0 0 212 727" fill="none" xmlns="http://www.w3.org/2000/svg">
<path d="M0 0H58.9134L105.043 91.2997H106.96L153.089 0H212.003L132.209 145.312V218.182H79.794V145.312L0 0Z" fill="#4A1A5E"/>
<path d="M140.8 571.412C140.089 563.599 136.929 557.527 131.318 553.195C125.778 548.791 117.859 546.589 107.561 546.589C100.743 546.589 95.0611 547.477 90.5156 549.253C85.9702 551.028 82.5611 553.479 80.2884 556.604C78.0156 559.658 76.8438 563.173 76.7727 567.151C76.6307 570.418 77.2699 573.294 78.6903 575.78C80.1818 578.266 82.3125 580.467 85.0824 582.385C87.9233 584.232 91.3324 585.865 95.3097 587.286C99.2869 588.706 103.761 589.949 108.733 591.014L127.483 595.276C138.278 597.619 147.795 600.744 156.034 604.651C164.344 608.557 171.304 613.209 176.915 618.607C182.597 624.004 186.893 630.219 189.805 637.25C192.717 644.281 194.209 652.165 194.28 660.901C194.209 674.679 190.729 686.504 183.839 696.376C176.95 706.249 167.043 713.812 154.116 719.068C141.261 724.324 125.743 726.952 107.561 726.952C89.3082 726.952 73.3991 724.217 59.8338 718.749C46.2685 713.28 35.7216 704.97 28.1932 693.82C20.6648 682.669 16.794 668.571 16.581 651.526H67.0781C67.5043 658.557 69.3864 664.416 72.7244 669.104C76.0625 673.791 80.6435 677.342 86.4673 679.757C92.3622 682.172 99.1804 683.379 106.922 683.379C114.024 683.379 120.061 682.42 125.033 680.503C130.075 678.585 133.946 675.922 136.645 672.513C139.344 669.104 140.729 665.197 140.8 660.794C140.729 656.675 139.45 653.159 136.964 650.247C134.479 647.264 130.643 644.707 125.459 642.577C120.345 640.375 113.811 638.351 105.857 636.504L83.0582 631.178C64.1662 626.845 49.2869 619.849 38.4205 610.19C27.554 600.46 22.1563 587.321 22.2273 570.773C22.1563 557.278 25.7784 545.453 33.0938 535.297C40.4091 525.141 50.5298 517.222 63.456 511.54C76.3821 505.858 91.1193 503.017 107.668 503.017C124.571 503.017 139.237 505.893 151.666 511.646C164.166 517.328 173.861 525.318 180.75 535.617C187.639 545.915 191.155 557.847 191.297 571.412H140.8Z" fill="#4A1A5E"/>
<path d="M29.8665 464.182V246H181.997V288.827H82.6009V333.571H174.22V376.504H82.6009V421.355H181.997V464.182H29.8665Z" fill="#4A1A5E"/>
</svg>
